<svg width="644" height="536" viewBox="0 0 644 536" fill="none" xmlns="http://www.w3.org/2000/svg">
<g filter="url(#filter0_f)">
<path fill-rule="evenodd" clip-rule="evenodd" d="M449.028 176.569C424.309 154.524 387.144 156.422 366.053 180.807L252.235 312.401L321.514 362.888C346.568 381.146 380.734 377.429 400.231 354.325L469.637 272.077C490.226 247.679 487.103 210.524 462.63 188.699L449.028 176.569Z" fill="url(#paint0_linear)"/>
</g>
<g filter="url(#filter1_i)">
<path fill-rule="evenodd" clip-rule="evenodd" d="M95.5434 159.994C69.7516 159.994 55.9929 173.779 55.9929 199.605L55.9929 345.801C55.9929 371.627 69.7516 385.412 95.5434 385.412L123.754 385.412C124.924 384.884 129.551 384.884 129.551 384.884L136.67 384.884C137.199 384.93 137.783 384.964 138.364 384.997C139.769 385.078 141.157 385.157 141.701 385.412L158.078 385.412C158.197 385.159 158.537 384.964 159.327 384.904L159.327 384.884L189.674 384.884C190.699 384.884 191.248 385.105 191.435 385.412L201.844 385.412C201.963 385.159 202.303 384.964 203.093 384.904L203.093 384.884L233.44 384.884C234.465 384.884 235.014 385.105 235.201 385.412L471.506 385.412C497.292 385.412 511.053 371.628 511.053 345.801L511.053 286.234C510.738 285.64 510.526 284.531 510.526 283.261C510.526 283.232 510.526 283.202 510.526 283.173C510.527 283.114 510.527 283.055 510.526 282.997L510.529 261.881C510.556 260.722 510.76 259.724 511.053 259.173L511.053 199.605C511.053 173.778 497.289 159.994 471.503 159.994L224.594 159.994C224.422 160.156 224.096 160.295 223.675 160.389L222.093 160.522L172.79 160.522L172.79 160.502C171.993 160.442 171.348 160.248 171.079 159.994L95.5434 159.994Z" fill="url(#paint1_linear)"/>
<path fill-rule="evenodd" clip-rule="evenodd" d="M95.5434 159.994C69.7516 159.994 55.9929 173.779 55.9929 199.605L55.9929 345.801C55.9929 371.627 69.7516 385.412 95.5434 385.412L123.754 385.412C124.924 384.884 129.551 384.884 129.551 384.884L136.67 384.884C137.199 384.93 137.783 384.964 138.364 384.997C139.769 385.078 141.157 385.157 141.701 385.412L158.078 385.412C158.197 385.159 158.537 384.964 159.327 384.904L159.327 384.884L189.674 384.884C190.699 384.884 191.248 385.105 191.435 385.412L201.844 385.412C201.963 385.159 202.303 384.964 203.093 384.904L203.093 384.884L233.44 384.884C234.465 384.884 235.014 385.105 235.201 385.412L471.506 385.412C497.292 385.412 511.053 371.628 511.053 345.801L511.053 286.234C510.738 285.64 510.526 284.531 510.526 283.261C510.526 283.232 510.526 283.202 510.526 283.173C510.527 283.114 510.527 283.055 510.526 282.997L510.529 261.881C510.556 260.722 510.76 259.724 511.053 259.173L511.053 199.605C511.053 173.778 497.289 159.994 471.503 159.994L224.594 159.994C224.422 160.156 224.096 160.295 223.675 160.389L222.093 160.522L172.79 160.522L172.79 160.502C171.993 160.442 171.348 160.248 171.079 159.994L95.5434 159.994Z" fill="url(#paint2_linear)"/>
</g>
<g style="mix-blend-mode:multiply" filter="url(#filter2_f)">
<path fill-rule="evenodd" clip-rule="evenodd" d="M81.3033 369.047C81.3033 361.758 75.4013 355.849 68.1208 355.849C60.8403 355.849 54.9383 361.758 54.9383 369.047C54.9383 376.336 60.8403 382.245 68.1208 382.245C75.4013 382.245 81.3033 376.336 81.3033 369.047Z" fill="#4A4A4A" fill-opacity="0.15"/>
</g>
<g filter="url(#filter3_ii)">
<path fill-rule="evenodd" clip-rule="evenodd" d="M59.684 202.187C59.684 176.032 70.4513 163.689 96.5951 163.689L471.506 163.689C497.644 163.689 507.89 176.03 507.89 202.187L507.89 343.219C507.89 369.376 497.644 382.245 471.506 382.245L96.595 382.245C70.4513 382.245 59.684 369.375 59.684 343.219L59.684 202.187Z" fill="url(#paint3_linear)"/>
</g>
<path fill-rule="evenodd" clip-rule="evenodd" d="M59.684 202.187C59.684 176.032 70.4513 163.689 96.5951 163.689L471.506 163.689C497.644 163.689 507.89 176.03 507.89 202.187L507.89 343.219C507.89 369.376 497.644 382.245 471.506 382.245L96.595 382.245C70.4513 382.245 59.684 369.375 59.684 343.219L59.684 202.187Z" stroke="url(#paint4_linear)" stroke-width="0.5"/>
<g filter="url(#filter4_ii)">
<path fill-rule="evenodd" clip-rule="evenodd" d="M61.2659 201.973C61.2659 175.814 71.8057 165.801 97.976 165.801L469.598 165.801C495.762 165.801 505.781 175.813 505.781 203.029L505.781 343.433C505.781 369.066 495.762 380.133 470.125 380.133L97.976 380.133C71.8057 380.133 61.2659 369.592 61.2659 343.433L61.2659 201.973Z" fill="url(#paint5_linear)"/>
<path fill-rule="evenodd" clip-rule="evenodd" d="M61.2659 201.973C61.2659 175.814 71.8057 165.801 97.976 165.801L469.598 165.801C495.762 165.801 505.781 175.813 505.781 203.029L505.781 343.433C505.781 369.066 495.762 380.133 470.125 380.133L97.976 380.133C71.8057 380.133 61.2659 369.592 61.2659 343.433L61.2659 201.973Z" fill="url(#paint6_linear)"/>
</g>
<g filter="url(#filter5_di)">
<path fill-rule="evenodd" clip-rule="evenodd" d="M174.916 160.786C173.373 160.749 172.203 160.505 171.753 160.35C172.052 159.12 171.963 158.938 171.963 158.938L223.284 158.938C223.284 158.938 223.863 159.323 224.001 160.35C223.836 160.49 223.381 160.693 221.104 160.786C218.995 160.786 176.459 160.823 174.916 160.786Z" fill="url(#paint7_linear)"/>
</g>
<mask id="mask0" mask-type="alpha" maskUnits="userSpaceOnUse" x="171" y="158" width="54" height="3">
<path fill-rule="evenodd" clip-rule="evenodd" d="M174.916 160.786C173.373 160.749 172.203 160.505 171.753 160.35C172.052 159.12 171.963 158.938 171.963 158.938L223.284 158.938C223.284 158.938 223.863 159.323 224.001 160.35C223.836 160.49 223.381 160.693 221.104 160.786C218.995 160.786 176.459 160.823 174.916 160.786Z" fill="white"/>
</mask>
<g mask="url(#mask0)">
<path fill-rule="evenodd" clip-rule="evenodd" d="M170.945 158.002C170.945 158.002 170.778 159.302 174.636 159.466C202.079 159.466 219.456 159.466 219.368 159.466C223.727 159.466 223.96 158.2 224.202 158.002L223.439 157.882C222.351 158.615 221.025 158.734 218.955 158.734C217.279 158.734 178.001 158.734 176.725 158.734C174.257 158.734 171.863 158.205 171.873 158.002L170.945 158.002Z" fill="#F7FAFF"/>
</g>
<g filter="url(#filter6_di)">
<path fill-rule="evenodd" clip-rule="evenodd" d="M205.5 384.62C203.957 384.657 202.866 384.62 202.265 385.07C202.325 385.504 202.419 385.97 202.547 386.468L234.357 386.468C234.495 386.252 234.685 385.786 234.928 385.07C234.515 384.797 234.454 384.713 232.177 384.62C230.068 384.62 207.042 384.583 205.5 384.62Z" fill="url(#paint8_linear)"/>
</g>
<mask id="mask1" mask-type="alpha" maskUnits="userSpaceOnUse" x="202" y="384" width="33" height="3">
<path fill-rule="evenodd" clip-rule="evenodd" d="M205.5 384.62C203.957 384.657 202.866 384.62 202.265 385.07C202.325 385.504 202.419 385.97 202.547 386.468L234.357 386.468C234.495 386.252 234.685 385.786 234.928 385.07C234.515 384.797 234.454 384.713 232.177 384.62C230.068 384.62 207.042 384.583 205.5 384.62Z" fill="white"/>
</mask>
<g mask="url(#mask1)">
<path fill-rule="evenodd" clip-rule="evenodd" d="M201.528 387.404C201.528 387.404 201.361 386.104 205.219 385.94L230.442 385.94C234.8 385.94 235.033 387.206 235.275 387.404L234.513 387.524C233.424 386.792 232.098 386.672 230.028 386.672L207.309 386.672C204.841 386.672 202.446 387.202 202.457 387.404L201.528 387.404Z" fill="#D0D5DA"/>
</g>
<g filter="url(#filter7_di)">
<path fill-rule="evenodd" clip-rule="evenodd" d="M161.734 384.62C160.191 384.657 158.638 384.795 158.433 385.054C158.505 385.488 158.62 385.96 158.781 386.468L190.591 386.468C190.805 386.397 190.988 385.948 191.139 385.121C190.795 384.83 190.319 384.62 188.411 384.62C186.302 384.62 163.276 384.583 161.734 384.62Z" fill="url(#paint9_linear)"/>
</g>
<mask id="mask2" mask-type="alpha" maskUnits="userSpaceOnUse" x="158" y="384" width="34" height="3">
<path fill-rule="evenodd" clip-rule="evenodd" d="M161.734 384.62C160.191 384.657 158.638 384.795 158.433 385.054C158.505 385.488 158.62 385.96 158.781 386.468L190.591 386.468C190.805 386.397 190.988 385.948 191.139 385.121C190.795 384.83 190.319 384.62 188.411 384.62C186.302 384.62 163.276 384.583 161.734 384.62Z" fill="white"/>
</mask>
<g mask="url(#mask2)">
<path fill-rule="evenodd" clip-rule="evenodd" d="M157.762 387.404C157.762 387.404 157.595 386.104 161.453 385.94L186.676 385.94C191.034 385.94 191.267 387.206 191.509 387.404L190.747 387.524C189.658 386.792 188.332 386.672 186.262 386.672L163.543 386.672C161.075 386.672 158.68 387.202 158.691 387.404L157.762 387.404Z" fill="#D0D5DA"/>
</g>
<g filter="url(#filter8_di)">
<path fill-rule="evenodd" clip-rule="evenodd" d="M126.124 384.884C124.864 384.884 124.015 385.204 124.015 385.204L124.015 386.503L124.506 386.996L140.497 386.996L141.071 386.469L141.074 385.204C141.074 385.204 139.731 384.884 138.252 384.884C137.205 384.884 127.072 384.884 126.124 384.884Z" fill="url(#paint10_linear)"/>
<path fill-rule="evenodd" clip-rule="evenodd" d="M126.124 384.884C124.864 384.884 124.015 385.204 124.015 385.204L124.015 386.503L124.506 386.996L140.497 386.996L141.071 386.469L141.074 385.204C141.074 385.204 139.731 384.884 138.252 384.884C137.205 384.884 127.072 384.884 126.124 384.884Z" fill="url(#paint11_linear)"/>
</g>
<mask id="mask3" mask-type="alpha" maskUnits="userSpaceOnUse" x="124" y="384" width="18" height="3">
<path fill-rule="evenodd" clip-rule="evenodd" d="M126.124 384.884C124.864 384.884 124.015 385.204 124.015 385.204L124.015 386.503L124.506 386.996L140.497 386.996L141.071 386.469L141.074 385.204C141.074 385.204 139.731 384.884 138.252 384.884C137.205 384.884 127.072 384.884 126.124 384.884Z" fill="white"/>
<path fill-rule="evenodd" clip-rule="evenodd" d="M126.124 384.884C124.864 384.884 124.015 385.204 124.015 385.204L124.015 386.503L124.506 386.996L140.497 386.996L141.071 386.469L141.074 385.204C141.074 385.204 139.731 384.884 138.252 384.884C137.205 384.884 127.072 384.884 126.124 384.884Z" stroke="white"/>
</mask>
<g mask="url(#mask3)">
<path fill-rule="evenodd" clip-rule="evenodd" d="M122.96 386.996C122.96 387.082 123.912 386.204 126.277 386.204L137.981 386.204C141.712 386.204 141.573 387.031 141.818 387.174L141.046 387.26C139.945 386.732 138.764 386.732 137.725 386.732L127.179 386.732C125.682 386.732 123.889 387.027 123.9 387.174L122.96 386.996Z" fill="url(#paint12_linear)" fill-opacity="0.2"/>
</g>
<g filter="url(#filter9_ddi)">
<path fill-rule="evenodd" clip-rule="evenodd" d="M72.3392 284.847C72.3392 285.866 73.1655 286.693 74.1848 286.693V286.693C75.204 286.693 76.0303 285.866 76.0303 284.847L76.0303 261.087C76.0303 260.068 75.204 259.241 74.1848 259.241V259.241C73.1655 259.241 72.3392 260.068 72.3392 261.087L72.3392 284.847Z" fill="#F4F4F4"/>
<path d="M75.7803 261.087L75.7803 284.847C75.7803 285.728 75.066 286.443 74.1848 286.443C73.3036 286.443 72.5892 285.728 72.5892 284.847L72.5892 261.087C72.5892 260.206 73.3036 259.491 74.1848 259.491C75.066 259.491 75.7803 260.206 75.7803 261.087Z" stroke="url(#paint13_linear)" stroke-width="0.5"/>
</g>
<g filter="url(#filter10_i)">
<path fill-rule="evenodd" clip-rule="evenodd" d="M75.0568 245.638C73.3772 245.156 71.6252 246.129 71.1435 247.81C70.6619 249.492 71.6331 251.246 73.3127 251.728C74.9923 252.21 76.7444 251.238 77.226 249.556C77.7076 247.875 76.7365 246.121 75.0568 245.638Z" fill="url(#paint14_linear)"/>
</g>
<g filter="url(#filter11_i)">
<path fill-rule="evenodd" clip-rule="evenodd" d="M74.7661 246.653C73.6464 246.332 72.4783 246.98 72.1573 248.101C71.8362 249.222 72.4836 250.392 73.6034 250.713C74.7231 251.035 75.8912 250.386 76.2122 249.265C76.5333 248.144 75.8859 246.975 74.7661 246.653Z" fill="url(#paint15_radial)"/>
</g>
<mask id="mask4" mask-type="alpha" maskUnits="userSpaceOnUse" x="72" y="246" width="5" height="5">
<path fill-rule="evenodd" clip-rule="evenodd" d="M74.7661 246.653C73.6464 246.332 72.4783 246.98 72.1573 248.101C71.8362 249.222 72.4836 250.392 73.6034 250.713C74.7231 251.035 75.8912 250.386 76.2122 249.265C76.5333 248.144 75.8859 246.975 74.7661 246.653Z" fill="white"/>
</mask>
<g mask="url(#mask4)">
</g>
<path opacity="0.01" fill-rule="evenodd" clip-rule="evenodd" d="M69.8766 330.744C69.8766 329.286 71.057 328.104 72.5131 328.104L74.095 328.104C80.5018 328.104 85.6956 322.905 85.6956 316.49L85.6956 229.385C85.6956 222.971 80.5018 217.771 74.095 217.771L72.5131 217.771C71.057 217.771 69.8766 216.589 69.8766 215.131L69.8766 194.543C69.8766 183.172 79.0837 173.954 90.4413 173.954L477.48 173.954C488.838 173.954 498.045 183.172 498.045 194.543L498.045 351.332C498.045 362.703 488.838 371.921 477.48 371.921L90.4413 371.921C79.0837 371.921 69.8766 362.703 69.8766 351.332L69.8766 330.744Z" fill="url(#paint16_radial)"/>
<mask id="mask5" mask-type="alpha" maskUnits="userSpaceOnUse" x="69" y="173" width="430" height="199">
<path fill-rule="evenodd" clip-rule="evenodd" d="M69.8766 330.744C69.8766 329.286 71.057 328.104 72.5131 328.104L74.095 328.104C80.5018 328.104 85.6956 322.905 85.6956 316.49L85.6956 229.385C85.6956 222.971 80.5018 217.771 74.095 217.771L72.5131 217.771C71.057 217.771 69.8766 216.589 69.8766 215.131L69.8766 194.543C69.8766 183.172 79.0837 173.954 90.4413 173.954L477.48 173.954C488.838 173.954 498.045 183.172 498.045 194.543L498.045 351.332C498.045 362.703 488.838 371.921 477.48 371.921L90.4413 371.921C79.0837 371.921 69.8766 362.703 69.8766 351.332L69.8766 330.744Z" fill="white"/>
</mask>
<g mask="url(#mask5)">
<path fill-rule="evenodd" clip-rule="evenodd" d="M69.8766 372.449L69.8766 173.954L497.476 173.954L498.531 372.382L69.8766 372.449Z" fill="url(#paint17_radial)"/>
</g>
<path d="M141.512 261.51V296.922C138.704 297.286 136.208 297.52 134.024 297.624C131.892 297.78 130.124 297.858 128.72 297.858C123.936 297.858 119.646 297.104 115.85 295.596C112.054 294.088 108.856 291.93 106.256 289.122C103.656 286.262 101.654 282.83 100.25 278.826C98.8984 274.77 98.2224 270.246 98.2224 265.254C98.2224 260.47 98.8724 256.076 100.172 252.072C101.472 248.016 103.396 244.532 105.944 241.62C108.544 238.656 111.768 236.368 115.616 234.756C119.516 233.092 124.014 232.26 129.11 232.26C131.294 232.26 133.166 232.416 134.726 232.728C136.338 232.988 137.898 233.352 139.406 233.82C139.406 234.652 139.406 235.562 139.406 236.55C139.458 237.538 139.484 238.604 139.484 239.748C139.484 240.892 139.458 242.114 139.406 243.414C139.406 244.714 139.406 245.884 139.406 246.924C136.858 245.572 133.946 244.896 130.67 244.896C127.81 244.896 125.418 245.39 123.494 246.378C121.57 247.314 120.01 248.536 118.814 250.044C117.67 251.552 116.838 253.242 116.318 255.114C115.85 256.934 115.616 258.702 115.616 260.418C115.616 262.394 115.902 264.318 116.474 266.19C117.098 268.062 118.008 269.726 119.204 271.182C120.4 272.638 121.882 273.808 123.65 274.692C125.47 275.576 127.602 276.018 130.046 276.018C130.306 276.018 130.54 276.018 130.748 276.018C131.008 276.018 131.268 275.992 131.528 275.94V261.51H141.512ZM154.849 250.356L155.395 256.284C156.019 255.296 156.773 254.386 157.657 253.554C158.541 252.722 159.451 252.02 160.387 251.448C161.375 250.824 162.337 250.356 163.273 250.044C164.261 249.68 165.171 249.498 166.003 249.498C166.107 250.85 166.185 252.41 166.237 254.178C166.341 255.894 166.393 257.662 166.393 259.482C166.393 261.562 166.341 263.616 166.237 265.644C166.185 267.672 166.107 269.544 166.003 271.26C165.535 271.052 164.885 270.896 164.053 270.792C163.221 270.688 162.519 270.636 161.947 270.636C160.023 270.636 158.593 271.104 157.657 272.04C156.773 272.924 156.331 274.042 156.331 275.394V297H144.865C144.917 288.576 144.943 280.594 144.943 273.054C144.995 265.462 145.021 257.896 145.021 250.356H154.849ZM207.223 297H196.537V293.178C194.665 294.686 192.689 295.856 190.609 296.688C188.529 297.468 186.501 297.858 184.525 297.858C182.185 297.858 180.027 297.286 178.051 296.142C176.075 294.998 174.359 293.412 172.903 291.384C171.499 289.304 170.381 286.834 169.549 283.974C168.717 281.114 168.301 277.994 168.301 274.614C168.301 271.078 168.743 267.776 169.627 264.708C170.511 261.64 171.707 258.988 173.215 256.752C174.775 254.464 176.595 252.696 178.675 251.448C180.807 250.148 183.095 249.498 185.539 249.498C187.671 249.498 189.699 249.966 191.623 250.902C193.547 251.786 195.185 252.904 196.537 254.256V250.356H207.613L207.223 297ZM183.199 268.842C183.199 270.974 183.771 272.69 184.915 273.99C186.111 275.29 187.619 275.94 189.439 275.94C191.415 275.94 193.079 275.238 194.431 273.834C195.835 272.43 196.537 270.636 196.537 268.452C196.537 267.464 196.355 266.528 195.991 265.644C195.679 264.76 195.211 264.006 194.587 263.382C193.963 262.706 193.235 262.186 192.403 261.822C191.571 261.458 190.687 261.276 189.751 261.276C187.879 261.276 186.319 261.978 185.071 263.382C183.823 264.786 183.199 266.606 183.199 268.842ZM211.209 231.402H222.285V254.256C223.689 252.904 225.327 251.786 227.199 250.902C229.123 249.966 231.151 249.498 233.283 249.498C235.727 249.498 237.989 250.148 240.069 251.448C242.201 252.696 244.021 254.464 245.529 256.752C247.089 258.988 248.311 261.64 249.195 264.708C250.079 267.776 250.521 271.078 250.521 274.614C250.521 277.994 250.105 281.114 249.273 283.974C248.441 286.834 247.297 289.304 245.841 291.384C244.437 293.412 242.747 294.998 240.771 296.142C238.795 297.286 236.637 297.858 234.297 297.858C232.321 297.858 230.293 297.468 228.213 296.688C226.133 295.856 224.157 294.686 222.285 293.178V297H211.599L211.209 231.402ZM222.285 268.842C222.285 270.974 222.857 272.69 224.001 273.99C225.197 275.29 226.705 275.94 228.525 275.94C230.501 275.94 232.165 275.238 233.517 273.834C234.921 272.43 235.623 270.636 235.623 268.452C235.623 267.464 235.441 266.528 235.077 265.644C234.765 264.76 234.297 264.006 233.673 263.382C233.049 262.706 232.321 262.186 231.489 261.822C230.709 261.458 229.851 261.276 228.915 261.276C226.991 261.276 225.405 261.978 224.157 263.382C222.909 264.786 222.285 266.606 222.285 268.842ZM257.706 253.242C259.474 251.838 261.372 250.876 263.4 250.356C265.428 249.784 267.482 249.498 269.562 249.498C271.07 249.498 272.552 249.628 274.008 249.888C275.516 250.148 276.946 250.486 278.298 250.902C278.402 254.074 278.454 256.674 278.454 258.702C278.506 260.678 278.532 262.212 278.532 263.304C278.532 264.864 278.506 265.982 278.454 266.658C278.402 267.282 278.35 267.88 278.298 268.452C278.194 268.452 277.934 268.4 277.518 268.296C277.102 268.192 276.608 268.088 276.036 267.984C275.464 267.88 274.84 267.802 274.164 267.75C273.54 267.646 272.916 267.594 272.292 267.594C271.356 267.594 270.55 267.724 269.874 267.984C269.25 268.192 268.938 268.634 268.938 269.31C268.938 269.882 269.146 270.428 269.562 270.948C269.978 271.416 270.472 271.91 271.044 272.43C271.668 272.898 272.318 273.366 272.994 273.834C273.722 274.25 274.398 274.64 275.022 275.004C276.426 275.94 277.726 277.214 278.922 278.826C280.17 280.386 280.794 282.466 280.794 285.066C280.794 287.354 280.274 289.304 279.234 290.916C278.246 292.528 276.972 293.854 275.412 294.894C273.852 295.934 272.084 296.688 270.108 297.156C268.184 297.624 266.286 297.858 264.414 297.858C263.686 297.858 262.854 297.832 261.918 297.78C260.982 297.728 260.02 297.624 259.032 297.468C258.096 297.312 257.16 297.13 256.224 296.922C255.288 296.662 254.43 296.35 253.65 295.986C253.39 295.102 253.208 294.166 253.104 293.178C253 292.138 252.948 291.124 252.948 290.136C252.948 289.668 252.948 289.096 252.948 288.42C253 287.744 253.052 287.068 253.104 286.392C253.156 285.664 253.234 284.962 253.338 284.286C253.442 283.61 253.546 283.038 253.65 282.57C254.222 282.83 254.872 283.116 255.6 283.428C256.38 283.688 257.186 283.948 258.018 284.208C258.85 284.468 259.656 284.702 260.436 284.91C261.268 285.066 262.048 285.144 262.776 285.144C263.816 285.144 264.622 284.936 265.194 284.52C265.766 284.104 266.052 283.532 266.052 282.804C266.052 282.18 265.87 281.634 265.506 281.166C265.142 280.646 264.7 280.178 264.18 279.762C263.66 279.294 263.088 278.904 262.464 278.592C261.84 278.228 261.268 277.916 260.748 277.656C259.76 277.136 258.746 276.564 257.706 275.94C256.666 275.316 255.73 274.562 254.898 273.678C254.066 272.742 253.39 271.624 252.87 270.324C252.35 269.024 252.09 267.438 252.09 265.566C252.09 263.382 252.506 261.198 253.338 259.014C254.222 256.83 255.678 254.906 257.706 253.242Z" fill="#E9ECDA"/>
<path d="M321.887 297.234C320.431 297.182 318.507 297.13 316.115 297.078C313.723 297.078 311.149 297.052 308.393 297C305.689 297 302.959 297 300.203 297C297.499 297 295.107 297 293.027 297C293.079 295.908 293.105 294.452 293.105 292.632C293.157 290.812 293.183 288.732 293.183 286.392C293.183 284.052 293.183 281.53 293.183 278.826C293.183 276.07 293.183 273.236 293.183 270.324C293.183 266.372 293.157 262.42 293.105 258.468C293.105 254.516 293.105 250.85 293.105 247.47C293.105 244.038 293.079 241.074 293.027 238.578C293.027 236.082 293.027 234.314 293.027 233.274C295.055 233.274 297.291 233.274 299.735 233.274C302.179 233.274 304.675 233.274 307.223 233.274C309.771 233.222 312.267 233.17 314.711 233.118C317.155 233.066 319.443 233.014 321.575 232.962C321.575 233.638 321.575 234.236 321.575 234.756C321.627 235.224 321.653 235.9 321.653 236.784C321.653 237.408 321.627 238.162 321.575 239.046C321.575 239.878 321.549 240.762 321.497 241.698C321.497 242.582 321.471 243.492 321.419 244.428C321.419 245.312 321.393 246.144 321.341 246.924H305.663V255.972H319.313V267.594H305.663V276.33H321.575C321.627 277.526 321.679 278.748 321.731 279.996C321.783 281.244 321.809 282.648 321.809 284.208C321.861 285.768 321.887 287.614 321.887 289.746C321.887 291.826 321.887 294.322 321.887 297.234ZM362.918 297H352.232V293.178C350.36 294.686 348.384 295.856 346.304 296.688C344.224 297.468 342.196 297.858 340.22 297.858C337.88 297.858 335.722 297.286 333.746 296.142C331.77 294.998 330.054 293.412 328.598 291.384C327.194 289.304 326.076 286.834 325.244 283.974C324.412 281.114 323.996 277.994 323.996 274.614C323.996 271.078 324.438 267.776 325.322 264.708C326.206 261.64 327.402 258.988 328.91 256.752C330.47 254.464 332.29 252.696 334.37 251.448C336.502 250.148 338.79 249.498 341.234 249.498C343.366 249.498 345.394 249.966 347.318 250.902C349.242 251.786 350.88 252.904 352.232 254.256V250.356H363.308L362.918 297ZM338.894 268.842C338.894 270.974 339.466 272.69 340.61 273.99C341.806 275.29 343.314 275.94 345.134 275.94C347.11 275.94 348.774 275.238 350.126 273.834C351.53 272.43 352.232 270.636 352.232 268.452C352.232 267.464 352.05 266.528 351.686 265.644C351.374 264.76 350.906 264.006 350.282 263.382C349.658 262.706 348.93 262.186 348.098 261.822C347.266 261.458 346.382 261.276 345.446 261.276C343.574 261.276 342.014 261.978 340.766 263.382C339.518 264.786 338.894 266.606 338.894 268.842ZM370.96 241.308H381.646V250.356H387.652V271.104H381.49V282.024C381.49 284.156 381.672 285.586 382.036 286.314C382.4 286.99 383.232 287.328 384.532 287.328C384.896 287.328 385.39 287.302 386.014 287.25C386.638 287.198 387.106 287.12 387.418 287.016C387.522 287.38 387.574 288.134 387.574 289.278C387.574 290.37 387.574 291.488 387.574 292.632C387.574 293.62 387.574 294.53 387.574 295.362C387.574 296.142 387.548 296.688 387.496 297C386.872 297.104 386.17 297.182 385.39 297.234C384.662 297.338 383.934 297.416 383.206 297.468C382.53 297.52 381.88 297.546 381.256 297.546C380.684 297.598 380.216 297.624 379.852 297.624C377.98 297.624 376.446 297.26 375.25 296.532C374.054 295.804 373.118 294.842 372.442 293.646C371.766 292.398 371.298 291.02 371.038 289.512C370.778 287.952 370.648 286.366 370.648 284.754C370.648 284.13 370.648 283.22 370.648 282.024C370.7 280.776 370.726 279.476 370.726 278.124C370.778 276.772 370.83 275.472 370.882 274.224C370.934 272.924 370.96 271.884 370.96 271.104H366.28V250.356H370.96V241.308ZM406.359 272.43C407.035 274.666 408.153 276.486 409.713 277.89C411.273 279.294 413.431 279.996 416.187 279.996C417.019 279.996 417.903 279.944 418.839 279.84C419.827 279.684 420.789 279.502 421.725 279.294C422.661 279.034 423.545 278.774 424.377 278.514C425.209 278.202 425.937 277.916 426.561 277.656C426.665 279.164 426.717 280.776 426.717 282.492C426.769 284.156 426.795 285.82 426.795 287.484C426.795 290.24 426.717 292.71 426.561 294.894C422.505 296.87 417.955 297.858 412.911 297.858C410.571 297.858 408.205 297.598 405.813 297.078C403.421 296.558 401.107 295.57 398.871 294.114C396.895 292.814 395.257 291.306 393.957 289.59C392.709 287.822 391.721 286.028 390.993 284.208C390.265 282.336 389.771 280.516 389.511 278.748C389.251 276.98 389.121 275.394 389.121 273.99C389.121 271.91 389.355 269.752 389.823 267.516C390.343 265.228 391.123 263.07 392.163 261.042C393.203 258.962 394.529 257.064 396.141 255.348C397.753 253.632 399.651 252.28 401.835 251.292C404.487 250.096 407.295 249.498 410.259 249.498C413.379 249.498 416.187 250.122 418.683 251.37C421.179 252.618 423.207 254.334 424.767 256.518C426.275 258.598 427.211 260.912 427.575 263.46C427.991 266.008 428.199 268.998 428.199 272.43H406.359ZM410.805 257.922C409.713 257.922 408.673 258.39 407.685 259.326C406.697 260.21 406.047 261.796 405.735 264.084H415.953C415.745 262.004 415.121 260.47 414.081 259.482C413.093 258.442 412.001 257.922 410.805 257.922ZM441.027 250.356L441.573 256.284C442.197 255.296 442.951 254.386 443.835 253.554C444.719 252.722 445.629 252.02 446.565 251.448C447.553 250.824 448.515 250.356 449.451 250.044C450.439 249.68 451.349 249.498 452.181 249.498C452.285 250.85 452.363 252.41 452.415 254.178C452.519 255.894 452.571 257.662 452.571 259.482C452.571 261.562 452.519 263.616 452.415 265.644C452.363 267.672 452.285 269.544 452.181 271.26C451.713 271.052 451.063 270.896 450.231 270.792C449.399 270.688 448.697 270.636 448.125 270.636C446.201 270.636 444.771 271.104 443.835 272.04C442.951 272.924 442.509 274.042 442.509 275.394V297H431.043C431.095 288.576 431.121 280.594 431.121 273.054C431.173 265.462 431.199 257.896 431.199 250.356H441.027ZM460.094 253.242C461.862 251.838 463.76 250.876 465.788 250.356C467.816 249.784 469.87 249.498 471.95 249.498C473.458 249.498 474.94 249.628 476.396 249.888C477.904 250.148 479.334 250.486 480.686 250.902C480.79 254.074 480.842 256.674 480.842 258.702C480.894 260.678 480.92 262.212 480.92 263.304C480.92 264.864 480.894 265.982 480.842 266.658C480.79 267.282 480.738 267.88 480.686 268.452C480.582 268.452 480.322 268.4 479.906 268.296C479.49 268.192 478.996 268.088 478.424 267.984C477.852 267.88 477.228 267.802 476.552 267.75C475.928 267.646 475.304 267.594 474.68 267.594C473.744 267.594 472.938 267.724 472.262 267.984C471.638 268.192 471.326 268.634 471.326 269.31C471.326 269.882 471.534 270.428 471.95 270.948C472.366 271.416 472.86 271.91 473.432 272.43C474.056 272.898 474.706 273.366 475.382 273.834C476.11 274.25 476.786 274.64 477.41 275.004C478.814 275.94 480.114 277.214 481.31 278.826C482.558 280.386 483.182 282.466 483.182 285.066C483.182 287.354 482.662 289.304 481.622 290.916C480.634 292.528 479.36 293.854 477.8 294.894C476.24 295.934 474.472 296.688 472.496 297.156C470.572 297.624 468.674 297.858 466.802 297.858C466.074 297.858 465.242 297.832 464.306 297.78C463.37 297.728 462.408 297.624 461.42 297.468C460.484 297.312 459.548 297.13 458.612 296.922C457.676 296.662 456.818 296.35 456.038 295.986C455.778 295.102 455.596 294.166 455.492 293.178C455.388 292.138 455.336 291.124 455.336 290.136C455.336 289.668 455.336 289.096 455.336 288.42C455.388 287.744 455.44 287.068 455.492 286.392C455.544 285.664 455.622 284.962 455.726 284.286C455.83 283.61 455.934 283.038 456.038 282.57C456.61 282.83 457.26 283.116 457.988 283.428C458.768 283.688 459.574 283.948 460.406 284.208C461.238 284.468 462.044 284.702 462.824 284.91C463.656 285.066 464.436 285.144 465.164 285.144C466.204 285.144 467.01 284.936 467.582 284.52C468.154 284.104 468.44 283.532 468.44 282.804C468.44 282.18 468.258 281.634 467.894 281.166C467.53 280.646 467.088 280.178 466.568 279.762C466.048 279.294 465.476 278.904 464.852 278.592C464.228 278.228 463.656 277.916 463.136 277.656C462.148 277.136 461.134 276.564 460.094 275.94C459.054 275.316 458.118 274.562 457.286 273.678C456.454 272.742 455.778 271.624 455.258 270.324C454.738 269.024 454.478 267.438 454.478 265.566C454.478 263.382 454.894 261.198 455.726 259.014C456.61 256.83 458.066 254.906 460.094 253.242Z" fill="#9AFE77"/>
<defs>
<filter id="filter0_f" x="91.4999" y="0.465988" width="552.48" height="534.727" filterUnits="userSpaceOnUse" color-interpolation-filters="sRGB">
<feFlood flood-opacity="0" result="BackgroundImageFix"/>
<feBlend mode="normal" in="SourceGraphic" in2="BackgroundImageFix" result="shape"/>
<feGaussianBlur stdDeviation="80.3674" result="effect1_foregroundBlur"/>
</filter>
<filter id="filter1_i" x="55.9929" y="159.994" width="455.061" height="225.418" filterUnits="userSpaceOnUse" color-interpolation-filters="sRGB">
<feFlood flood-opacity="0" result="BackgroundImageFix"/>
<feBlend mode="normal" in="SourceGraphic" in2="BackgroundImageFix" result="shape"/>
<feColorMatrix in="SourceAlpha" type="matrix" values="0 0 0 0 0 0 0 0 0 0 0 0 0 0 0 0 0 0 127 0" result="hardAlpha"/>
<feOffset/>
<feGaussianBlur stdDeviation="1.5"/>
<feComposite in2="hardAlpha" operator="arithmetic" k2="-1" k3="1"/>
<feColorMatrix type="matrix" values="0 0 0 0 0 0 0 0 0 0 0 0 0 0 0 0 0 0 0.1 0"/>
<feBlend mode="normal" in2="shape" result="effect1_innerShadow"/>
</filter>
<filter id="filter2_f" x="0.572643" y="301.483" width="135.096" height="135.127" filterUnits="userSpaceOnUse" color-interpolation-filters="sRGB">
<feFlood flood-opacity="0" result="BackgroundImageFix"/>
<feBlend mode="normal" in="SourceGraphic" in2="BackgroundImageFix" result="shape"/>
<feGaussianBlur stdDeviation="27.1828" result="effect1_foregroundBlur"/>
</filter>
<filter id="filter3_ii" x="58.434" y="163.439" width="450.706" height="219.055" filterUnits="userSpaceOnUse" color-interpolation-filters="sRGB">
<feFlood flood-opacity="0" result="BackgroundImageFix"/>
<feBlend mode="normal" in="SourceGraphic" in2="BackgroundImageFix" result="shape"/>
<feColorMatrix in="SourceAlpha" type="matrix" values="0 0 0 0 0 0 0 0 0 0 0 0 0 0 0 0 0 0 127 0" result="hardAlpha"/>
<feOffset dx="1"/>
<feGaussianBlur stdDeviation="1"/>
<feComposite in2="hardAlpha" operator="arithmetic" k2="-1" k3="1"/>
<feColorMatrix type="matrix" values="0 0 0 0 0 0 0 0 0 0 0 0 0 0 0 0 0 0 0.15666 0"/>
<feBlend mode="normal" in2="shape" result="effect1_innerShadow"/>
<feColorMatrix in="SourceAlpha" type="matrix" values="0 0 0 0 0 0 0 0 0 0 0 0 0 0 0 0 0 0 127 0" result="hardAlpha"/>
<feOffset dx="-1"/>
<feGaussianBlur stdDeviation="1"/>
<feComposite in2="hardAlpha" operator="arithmetic" k2="-1" k3="1"/>
<feColorMatrix type="matrix" values="0 0 0 0 0 0 0 0 0 0 0 0 0 0 0 0 0 0 0.05 0"/>
<feBlend mode="normal" in2="effect1_innerShadow" result="effect2_innerShadow"/>
</filter>
<filter id="filter4_ii" x="61.2659" y="165.801" width="447.515" height="216.332" filterUnits="userSpaceOnUse" color-interpolation-filters="sRGB">
<feFlood flood-opacity="0" result="BackgroundImageFix"/>
<feBlend mode="normal" in="SourceGraphic" in2="BackgroundImageFix" result="shape"/>
<feColorMatrix in="SourceAlpha" type="matrix" values="0 0 0 0 0 0 0 0 0 0 0 0 0 0 0 0 0 0 127 0" result="hardAlpha"/>
<feOffset dy="2"/>
<feGaussianBlur stdDeviation="3"/>
<feComposite in2="hardAlpha" operator="arithmetic" k2="-1" k3="1"/>
<feColorMatrix type="matrix" values="0 0 0 0 1 0 0 0 0 1 0 0 0 0 1 0 0 0 0.794307 0"/>
<feBlend mode="normal" in2="shape" result="effect1_innerShadow"/>
<feColorMatrix in="SourceAlpha" type="matrix" values="0 0 0 0 0 0 0 0 0 0 0 0 0 0 0 0 0 0 127 0" result="hardAlpha"/>
<feOffset dx="3"/>
<feGaussianBlur stdDeviation="3"/>
<feComposite in2="hardAlpha" operator="arithmetic" k2="-1" k3="1"/>
<feColorMatrix type="matrix" values="0 0 0 0 0 0 0 0 0 0 0 0 0 0 0 0 0 0 0.100579 0"/>
<feBlend mode="normal" in2="effect1_innerShadow" result="effect2_innerShadow"/>
</filter>
<filter id="filter5_di" x="171.553" y="158.938" width="52.9482" height="1.86426" filterUnits="userSpaceOnUse" color-interpolation-filters="sRGB">
<feFlood flood-opacity="0" result="BackgroundImageFix"/>
<feColorMatrix in="SourceAlpha" type="matrix" values="0 0 0 0 0 0 0 0 0 0 0 0 0 0 0 0 0 0 127 0"/>
<feOffset dx="-0.2"/>
<feColorMatrix type="matrix" values="0 0 0 0 0 0 0 0 0 0 0 0 0 0 0 0 0 0 0.3 0"/>
<feBlend mode="normal" in2="BackgroundImageFix" result="effect1_dropShadow"/>
<feBlend mode="normal" in="SourceGraphic" in2="effect1_dropShadow" result="shape"/>
<feColorMatrix in="SourceAlpha" type="matrix" values="0 0 0 0 0 0 0 0 0 0 0 0 0 0 0 0 0 0 127 0" result="hardAlpha"/>
<feOffset dx="0.5"/>
<feGaussianBlur stdDeviation="0.5"/>
<feComposite in2="hardAlpha" operator="arithmetic" k2="-1" k3="1"/>
<feColorMatrix type="matrix" values="0 0 0 0 0 0 0 0 0 0 0 0 0 0 0 0 0 0 0.100934 0"/>
<feBlend mode="normal" in2="shape" result="effect2_innerShadow"/>
</filter>
<filter id="filter6_di" x="201.765" y="384.604" width="33.3627" height="1.86424" filterUnits="userSpaceOnUse" color-interpolation-filters="sRGB">
<feFlood flood-opacity="0" result="BackgroundImageFix"/>
<feColorMatrix in="SourceAlpha" type="matrix" values="0 0 0 0 0 0 0 0 0 0 0 0 0 0 0 0 0 0 127 0"/>
<feOffset dx="0.2"/>
<feColorMatrix type="matrix" values="0 0 0 0 0 0 0 0 0 0 0 0 0 0 0 0 0 0 0.3 0"/>
<feBlend mode="normal" in2="BackgroundImageFix" result="effect1_dropShadow"/>
<feBlend mode="normal" in="SourceGraphic" in2="effect1_dropShadow" result="shape"/>
<feColorMatrix in="SourceAlpha" type="matrix" values="0 0 0 0 0 0 0 0 0 0 0 0 0 0 0 0 0 0 127 0" result="hardAlpha"/>
<feOffset dx="-0.5"/>
<feGaussianBlur stdDeviation="0.5"/>
<feComposite in2="hardAlpha" operator="arithmetic" k2="-1" k3="1"/>
<feColorMatrix type="matrix" values="0 0 0 0 0 0 0 0 0 0 0 0 0 0 0 0 0 0 0.0963724 0"/>
<feBlend mode="normal" in2="shape" result="effect2_innerShadow"/>
</filter>
<filter id="filter7_di" x="157.933" y="384.604" width="33.4062" height="1.86424" filterUnits="userSpaceOnUse" color-interpolation-filters="sRGB">
<feFlood flood-opacity="0" result="BackgroundImageFix"/>
<feColorMatrix in="SourceAlpha" type="matrix" values="0 0 0 0 0 0 0 0 0 0 0 0 0 0 0 0 0 0 127 0"/>
<feOffset dx="0.2"/>
<feColorMatrix type="matrix" values="0 0 0 0 0 0 0 0 0 0 0 0 0 0 0 0 0 0 0.3 0"/>
<feBlend mode="normal" in2="BackgroundImageFix" result="effect1_dropShadow"/>
<feBlend mode="normal" in="SourceGraphic" in2="effect1_dropShadow" result="shape"/>
<feColorMatrix in="SourceAlpha" type="matrix" values="0 0 0 0 0 0 0 0 0 0 0 0 0 0 0 0 0 0 127 0" result="hardAlpha"/>
<feOffset dx="-0.5"/>
<feGaussianBlur stdDeviation="0.5"/>
<feComposite in2="hardAlpha" operator="arithmetic" k2="-1" k3="1"/>
<feColorMatrix type="matrix" values="0 0 0 0 0 0 0 0 0 0 0 0 0 0 0 0 0 0 0.100716 0"/>
<feBlend mode="normal" in2="shape" result="effect2_innerShadow"/>
</filter>
<filter id="filter8_di" x="123.515" y="384.884" width="17.7597" height="2.11164" filterUnits="userSpaceOnUse" color-interpolation-filters="sRGB">
<feFlood flood-opacity="0" result="BackgroundImageFix"/>
<feColorMatrix in="SourceAlpha" type="matrix" values="0 0 0 0 0 0 0 0 0 0 0 0 0 0 0 0 0 0 127 0"/>
<feOffset dx="0.2"/>
<feColorMatrix type="matrix" values="0 0 0 0 0 0 0 0 0 0 0 0 0 0 0 0 0 0 0.3 0"/>
<feBlend mode="normal" in2="BackgroundImageFix" result="effect1_dropShadow"/>
<feBlend mode="normal" in="SourceGraphic" in2="effect1_dropShadow" result="shape"/>
<feColorMatrix in="SourceAlpha" type="matrix" values="0 0 0 0 0 0 0 0 0 0 0 0 0 0 0 0 0 0 127 0" result="hardAlpha"/>
<feOffset dx="-0.5"/>
<feGaussianBlur stdDeviation="0.5"/>
<feComposite in2="hardAlpha" operator="arithmetic" k2="-1" k3="1"/>
<feColorMatrix type="matrix" values="0 0 0 0 0 0 0 0 0 0 0 0 0 0 0 0 0 0 0.5 0"/>
<feBlend mode="normal" in2="shape" result="effect2_innerShadow"/>
</filter>
<filter id="filter9_ddi" x="71.8392" y="258.741" width="4.69111" height="28.4514" filterUnits="userSpaceOnUse" color-interpolation-filters="sRGB">
<feFlood flood-opacity="0" result="BackgroundImageFix"/>
<feColorMatrix in="SourceAlpha" type="matrix" values="0 0 0 0 0 0 0 0 0 0 0 0 0 0 0 0 0 0 127 0"/>
<feOffset dx="-0.5" dy="0.5"/>
<feColorMatrix type="matrix" values="0 0 0 0 1 0 0 0 0 1 0 0 0 0 1 0 0 0 0.5 0"/>
<feBlend mode="normal" in2="BackgroundImageFix" result="effect1_dropShadow"/>
<feColorMatrix in="SourceAlpha" type="matrix" values="0 0 0 0 0 0 0 0 0 0 0 0 0 0 0 0 0 0 127 0"/>
<feOffset dx="0.5" dy="-0.5"/>
<feColorMatrix type="matrix" values="0 0 0 0 0 0 0 0 0 0 0 0 0 0 0 0 0 0 0.152262 0"/>
<feBlend mode="normal" in2="effect1_dropShadow" result="effect2_dropShadow"/>
<feBlend mode="normal" in="SourceGraphic" in2="effect2_dropShadow" result="shape"/>
<feColorMatrix in="SourceAlpha" type="matrix" values="0 0 0 0 0 0 0 0 0 0 0 0 0 0 0 0 0 0 127 0" result="hardAlpha"/>
<feOffset dy="0.5"/>
<feGaussianBlur stdDeviation="0.5"/>
<feComposite in2="hardAlpha" operator="arithmetic" k2="-1" k3="1"/>
<feColorMatrix type="matrix" values="0 0 0 0 0 0 0 0 0 0 0 0 0 0 0 0 0 0 0.151524 0"/>
<feBlend mode="normal" in2="shape" result="effect3_innerShadow"/>
</filter>
<filter id="filter10_i" x="71.0202" y="245.515" width="6.32925" height="6.83658" filterUnits="userSpaceOnUse" color-interpolation-filters="sRGB">
<feFlood flood-opacity="0" result="BackgroundImageFix"/>
<feBlend mode="normal" in="SourceGraphic" in2="BackgroundImageFix" result="shape"/>
<feColorMatrix in="SourceAlpha" type="matrix" values="0 0 0 0 0 0 0 0 0 0 0 0 0 0 0 0 0 0 127 0" result="hardAlpha"/>
<feOffset dy="0.5"/>
<feGaussianBlur stdDeviation="0.5"/>
<feComposite in2="hardAlpha" operator="arithmetic" k2="-1" k3="1"/>
<feColorMatrix type="matrix" values="0 0 0 0 0 0 0 0 0 0 0 0 0 0 0 0 0 0 0.149858 0"/>
<feBlend mode="normal" in2="shape" result="effect1_innerShadow"/>
</filter>
<filter id="filter11_i" x="72.075" y="246.571" width="4.21949" height="4.22437" filterUnits="userSpaceOnUse" color-interpolation-filters="sRGB">
<feFlood flood-opacity="0" result="BackgroundImageFix"/>
<feBlend mode="normal" in="SourceGraphic" in2="BackgroundImageFix" result="shape"/>
<feColorMatrix in="SourceAlpha" type="matrix" values="0 0 0 0 0 0 0 0 0 0 0 0 0 0 0 0 0 0 127 0" result="hardAlpha"/>
<feOffset/>
<feGaussianBlur stdDeviation="1"/>
<feComposite in2="hardAlpha" operator="arithmetic" k2="-1" k3="1"/>
<feColorMatrix type="matrix" values="0 0 0 0 0 0 0 0 0 0 0 0 0 0 0 0 0 0 0.101508 0"/>
<feBlend mode="normal" in2="shape" result="effect1_innerShadow"/>
</filter>
<linearGradient id="paint0_linear" x1="265.551" y1="114.211" x2="498.11" y2="117.9" gradientUnits="userSpaceOnUse">
<stop stop-opacity="0.01"/>
<stop offset="1" stop-opacity="0.432665"/>
</linearGradient>
<linearGradient id="paint1_linear" x1="511.054" y1="385.412" x2="511.054" y2="159.994" gradientUnits="userSpaceOnUse">
<stop stop-color="#CFD3D8"/>
<stop offset="0.125764" stop-color="#ECEDF0"/>
<stop offset="0.933415" stop-color="#F0F1F2"/>
<stop offset="1" stop-color="#FBFEFF"/>
</linearGradient>
<linearGradient id="paint2_linear" x1="420.924" y1="295.026" x2="511.054" y2="295.026" gradientUnits="userSpaceOnUse">
<stop stop-color="white" stop-opacity="0.5"/>
<stop offset="1" stop-color="#D0D5DA"/>
</linearGradient>
<linearGradient id="paint3_linear" x1="507.89" y1="382.245" x2="507.89" y2="163.689" gradientUnits="userSpaceOnUse">
<stop stop-color="#D9D9D9"/>
<stop offset="0.204224" stop-color="#EDF1F4" stop-opacity="0.01"/>
<stop offset="0.903481" stop-color="#EEF1F4" stop-opacity="0.01"/>
<stop offset="1" stop-color="white"/>
</linearGradient>
<linearGradient id="paint4_linear" x1="507.89" y1="382.245" x2="507.89" y2="163.689" gradientUnits="userSpaceOnUse">
<stop stop-color="white" stop-opacity="0.5"/>
<stop offset="0.0657694" stop-opacity="0.05"/>
<stop offset="0.949195" stop-opacity="0.05"/>
<stop offset="1" stop-opacity="0.1"/>
</linearGradient>
<linearGradient id="paint5_linear" x1="505.781" y1="380.133" x2="505.781" y2="165.801" gradientUnits="userSpaceOnUse">
<stop stop-color="#ECEDF0"/>
<stop offset="1" stop-color="#F8F8F8"/>
</linearGradient>
<linearGradient id="paint6_linear" x1="441.584" y1="288.444" x2="505.781" y2="288.444" gradientUnits="userSpaceOnUse">
<stop stop-color="#E3E6EB" stop-opacity="0.01"/>
<stop offset="1" stop-color="#E3E6EB"/>
</linearGradient>
<linearGradient id="paint7_linear" x1="172.64" y1="160.773" x2="223.25" y2="160.773" gradientUnits="userSpaceOnUse">
<stop stop-color="#B1B8C2"/>
<stop offset="0.0516372" stop-color="#ECEEF1"/>
<stop offset="0.920731" stop-color="#EDEEF1"/>
<stop offset="1" stop-color="#B1B8C2"/>
</linearGradient>
<linearGradient id="paint8_linear" x1="202.82" y1="386.439" x2="234.458" y2="386.439" gradientUnits="userSpaceOnUse">
<stop stop-color="#B1B8C2"/>
<stop offset="0.0516372" stop-color="#ECEEF1"/>
<stop offset="0.920731" stop-color="#EDEEF1"/>
<stop offset="1" stop-color="#B1B8C2"/>
</linearGradient>
<linearGradient id="paint9_linear" x1="158.989" y1="386.439" x2="190.669" y2="386.439" gradientUnits="userSpaceOnUse">
<stop stop-color="#B1B8C2"/>
<stop offset="0.0516372" stop-color="#ECEEF1"/>
<stop offset="0.920731" stop-color="#EDEEF1"/>
<stop offset="1" stop-color="#B1B8C2"/>
</linearGradient>
<linearGradient id="paint10_linear" x1="124.305" y1="386.963" x2="140.829" y2="386.963" gradientUnits="userSpaceOnUse">
<stop stop-color="#B1B8C2"/>
<stop offset="0.0516372" stop-color="#ECEEF1"/>
<stop offset="0.920731" stop-color="#EDEEF1"/>
<stop offset="1" stop-color="#B1B8C2"/>
</linearGradient>
<linearGradient id="paint11_linear" x1="141.074" y1="386.996" x2="141.074" y2="384.884" gradientUnits="userSpaceOnUse">
<stop stop-color="#D0D5DA" stop-opacity="0.01"/>
<stop offset="0.684204" stop-color="#D0D4D9" stop-opacity="0.01"/>
<stop offset="1" stop-color="#D0D4D9"/>
</linearGradient>
<linearGradient id="paint12_linear" x1="124.566" y1="387.172" x2="140.295" y2="387.172" gradientUnits="userSpaceOnUse">
<stop stop-color="#111111"/>
<stop offset="0.153528" stop-color="#FEFEFE"/>
<stop offset="0.831036" stop-color="#FEFEFE"/>
<stop offset="1" stop-color="#1D1D1D"/>
</linearGradient>
<linearGradient id="paint13_linear" x1="76.0303" y1="259.241" x2="72.3392" y2="259.241" gradientUnits="userSpaceOnUse">
<stop stop-color="white" stop-opacity="0.2"/>
<stop offset="1" stop-opacity="0.3"/>
</linearGradient>
<linearGradient id="paint14_linear" x1="73.9111" y1="244.116" x2="70.159" y2="248.865" gradientUnits="userSpaceOnUse">
<stop stop-color="#F5F9FC"/>
<stop offset="1" stop-color="#EAEAEA"/>
</linearGradient>
<radialGradient id="paint15_radial" cx="0" cy="0" r="1" gradientUnits="userSpaceOnUse" gradientTransform="translate(73.0257 248.9) rotate(-74.0175) scale(2.8499 2.84711)">
<stop stop-color="white"/>
<stop offset="1" stop-color="#DBDBDC"/>
</radialGradient>
<radialGradient id="paint16_radial" cx="0" cy="0" r="1" gradientUnits="userSpaceOnUse" gradientTransform="translate(283.961 272.938) scale(214.084 98.9833)">
<stop stop-color="#71E24A"/>
<stop offset="0.723958" stop-opacity="0.79"/>
</radialGradient>
<radialGradient id="paint17_radial" cx="0" cy="0" r="1" gradientUnits="userSpaceOnUse" gradientTransform="translate(284.204 273.202) scale(214.327 99.2473)">
<stop stop-color="#71E24A"/>
<stop offset="0.723958" stop-opacity="0.79"/>
</radialGradient>
</defs>
</svg>
